<svg xmlns="http://www.w3.org/2000/svg" id="prefix__Download_on_the_App_Store_Badge" width="142.729" height="42.117" viewBox="0 0 99.316 29.427">
    <defs>
        <style>
            .prefix__cls-2{fill:#fff}
        </style>
    </defs>
    <path id="prefix__Path_41" d="M95.782 29.427H3.479A3.487 3.487 0 0 1 0 25.945V3.477A3.482 3.482 0 0 1 3.479 0h92.3a3.53 3.53 0 0 1 3.533 3.477v22.468a3.534 3.534 0 0 1-3.533 3.482z" data-name="Path 41" style="fill:#a6a6a6"/>
    <path id="prefix__Path_42" d="M98.839 26.181A2.818 2.818 0 0 1 96.018 29H3.714A2.821 2.821 0 0 1 .89 26.181V3.711A2.825 2.825 0 0 1 3.714.89h92.3a2.821 2.821 0 0 1 2.821 2.821v22.47z" data-name="Path 42" transform="translate(-.235 -.235)"/>
    <g id="prefix__Group_20" data-name="Group 20" transform="translate(9.411 4.574)">
        <g id="prefix__Group_19" data-name="Group 19">
            <path id="prefix__Path_43" d="M25.546 17.825a4.265 4.265 0 0 1 2.031-3.578 4.368 4.368 0 0 0-3.44-1.86c-1.447-.152-2.851.866-3.588.866s-1.887-.851-3.11-.826a4.58 4.58 0 0 0-3.855 2.351c-1.667 2.886-.424 7.127 1.173 9.46.8 1.142 1.733 2.418 2.954 2.373 1.2-.049 1.642-.762 3.085-.762s1.849.762 3.095.733c1.283-.021 2.091-1.148 2.862-2.3a9.441 9.441 0 0 0 1.309-2.665 4.122 4.122 0 0 1-2.516-3.792z" class="prefix__cls-2" data-name="Path 43" transform="translate(-12.792 -7.844)"/>
            <path id="prefix__Path_44" d="M25.918 9.225a4.2 4.2 0 0 0 .961-3.008 4.276 4.276 0 0 0-2.765 1.43 4 4 0 0 0-.986 2.9 3.532 3.532 0 0 0 2.79-1.322z" class="prefix__cls-2" data-name="Path 44" transform="translate(-15.518 -6.217)"/>
        </g>
    </g>
    <g id="prefix__Group_21" data-name="Group 21" transform="translate(31.2 13.243)">
        <path id="prefix__Path_45" d="M50.675 27.986H49l-.915-2.876h-3.177l-.872 2.876H42.41l3.152-9.79h1.947zM47.814 23.9l-.828-2.556q-.131-.392-.494-1.844h-.029q-.145.625-.465 1.844l-.813 2.556z" class="prefix__cls-2" data-name="Path 45" transform="translate(-42.41 -18.053)"/>
        <path id="prefix__Path_46" d="M62.219 25.3a4.012 4.012 0 0 1-.973 2.846 2.846 2.846 0 0 1-2.164.93 2.164 2.164 0 0 1-2-1h-.029v3.719h-1.574V24.18q0-1.132-.058-2.324H56.8l.088 1.119h.029a2.791 2.791 0 0 1 4.466-.277 3.889 3.889 0 0 1 .836 2.602zm-1.6.057a2.906 2.906 0 0 0-.465-1.7 1.606 1.606 0 0 0-1.365-.7 1.631 1.631 0 0 0-1.053.385 1.785 1.785 0 0 0-.617 1.01 2.054 2.054 0 0 0-.073.478v1.18a1.886 1.886 0 0 0 .472 1.3 1.565 1.565 0 0 0 1.227.53 1.606 1.606 0 0 0 1.379-.683 3 3 0 0 0 .497-1.801z" class="prefix__cls-2" data-name="Path 46" transform="translate(-45.849 -18.982)"/>
        <path id="prefix__Path_47" d="M73.257 25.3a4.009 4.009 0 0 1-.974 2.846 2.843 2.843 0 0 1-2.164.93 2.162 2.162 0 0 1-2-1h-.029v3.719h-1.573V24.18q0-1.132-.058-2.324h1.379l.088 1.119h.029a2.791 2.791 0 0 1 4.467-.277 3.9 3.9 0 0 1 .835 2.602zm-1.6.057a2.906 2.906 0 0 0-.466-1.7 1.6 1.6 0 0 0-1.365-.7 1.633 1.633 0 0 0-1.053.385 1.783 1.783 0 0 0-.616 1.01 2.093 2.093 0 0 0-.073.478v1.18a1.892 1.892 0 0 0 .471 1.3 1.569 1.569 0 0 0 1.229.53 1.606 1.606 0 0 0 1.379-.683 3 3 0 0 0 .496-1.801z" class="prefix__cls-2" data-name="Path 47" transform="translate(-48.767 -18.982)"/>
        <path id="prefix__Path_48" d="M85.857 25.189a2.609 2.609 0 0 1-.87 2.033 3.854 3.854 0 0 1-2.667.857 4.668 4.668 0 0 1-2.537-.61l.363-1.307a4.3 4.3 0 0 0 2.267.625 2.144 2.144 0 0 0 1.381-.4 1.307 1.307 0 0 0 .493-1.07 1.364 1.364 0 0 0-.407-1 3.782 3.782 0 0 0-1.351-.757q-2.571-.959-2.57-2.807a2.484 2.484 0 0 1 .9-1.978 3.553 3.553 0 0 1 2.4-.771 4.752 4.752 0 0 1 2.222.465l-.392 1.279a3.855 3.855 0 0 0-1.874-.45 1.9 1.9 0 0 0-1.292.407 1.162 1.162 0 0 0-.392.886 1.2 1.2 0 0 0 .449.959 5.08 5.08 0 0 0 1.42.75 4.832 4.832 0 0 1 1.859 1.19 2.487 2.487 0 0 1 .598 1.699z" class="prefix__cls-2" data-name="Path 48" transform="translate(-52.289 -18.001)"/>
        <path id="prefix__Path_49" d="M93.543 22.453h-1.729v3.428q0 1.308.915 1.307a2.79 2.79 0 0 0 .7-.073l.043 1.191a3.554 3.554 0 0 1-1.22.174 1.882 1.882 0 0 1-1.453-.566 2.783 2.783 0 0 1-.523-1.9v-3.562h-1.03v-1.177h1.03v-1.293l1.54-.465v1.758h1.729z" class="prefix__cls-2" data-name="Path 49" transform="translate(-54.79 -18.402)"/>
        <path id="prefix__Path_50" d="M103.207 25.328a3.873 3.873 0 0 1-.93 2.673 3.32 3.32 0 0 1-2.587 1.075 3.157 3.157 0 0 1-2.476-1.031 3.754 3.754 0 0 1-.923-2.6 3.835 3.835 0 0 1 .951-2.687 3.292 3.292 0 0 1 2.563-1.046 3.224 3.224 0 0 1 2.5 1.031 3.711 3.711 0 0 1 .902 2.585zm-1.627.051a3.175 3.175 0 0 0-.421-1.675 1.549 1.549 0 0 0-1.408-.845 1.573 1.573 0 0 0-1.438.845 3.236 3.236 0 0 0-.421 1.7 3.171 3.171 0 0 0 .421 1.674 1.6 1.6 0 0 0 2.832-.015 3.187 3.187 0 0 0 .434-1.684z" class="prefix__cls-2" data-name="Path 50" transform="translate(-56.653 -18.982)"/>
        <path id="prefix__Path_51" d="M111.264 23.235a2.723 2.723 0 0 0-.494-.043 1.482 1.482 0 0 0-1.279.625 2.35 2.35 0 0 0-.392 1.394v3.7h-1.568l.015-4.836q0-1.22-.059-2.222h1.366l.057 1.351h.043a2.414 2.414 0 0 1 .784-1.118 1.9 1.9 0 0 1 1.134-.378 2.518 2.518 0 0 1 .392.029v1.5z" class="prefix__cls-2" data-name="Path 51" transform="translate(-59.612 -18.982)"/>
        <path id="prefix__Path_52" d="M119.9 25.047a3.679 3.679 0 0 1-.057.711h-4.705a2.048 2.048 0 0 0 .683 1.6 2.331 2.331 0 0 0 1.539.494 5.2 5.2 0 0 0 1.9-.334l.246 1.089a5.886 5.886 0 0 1-2.367.436 3.428 3.428 0 0 1-2.579-.966 3.567 3.567 0 0 1-.937-2.593 4.044 4.044 0 0 1 .873-2.658 3.006 3.006 0 0 1 2.468-1.132 2.631 2.631 0 0 1 2.311 1.132 3.818 3.818 0 0 1 .625 2.221zm-1.5-.407a2.131 2.131 0 0 0-.3-1.206 1.37 1.37 0 0 0-1.25-.654 1.488 1.488 0 0 0-1.248.639 2.341 2.341 0 0 0-.464 1.22h3.267z" class="prefix__cls-2" data-name="Path 52" transform="translate(-61.235 -18.977)"/>
    </g>
    <g id="prefix__Group_23" data-name="Group 23" transform="translate(32.131 4.823)">
        <g id="prefix__Group_22" data-name="Group 22">
            <path id="prefix__Path_53" d="M47.629 9.173a2.415 2.415 0 0 1-.778 1.955 3.1 3.1 0 0 1-2.047.606 9.492 9.492 0 0 1-1.128-.057V6.946a8.322 8.322 0 0 1 1.324-.1 2.863 2.863 0 0 1 1.905.55 2.221 2.221 0 0 1 .724 1.777zm-.813.021a1.758 1.758 0 0 0-.445-1.294 1.757 1.757 0 0 0-1.3-.449 3.263 3.263 0 0 0-.621.05v3.6a4.07 4.07 0 0 0 .521.021 1.824 1.824 0 0 0 1.366-.492 1.971 1.971 0 0 0 .48-1.436z" class="prefix__cls-2" data-name="Path 53" transform="translate(-43.676 -6.633)"/>
            <path id="prefix__Path_54" d="M53.689 10.4a1.9 1.9 0 0 1-.457 1.313 1.631 1.631 0 0 1-1.271.528 1.55 1.55 0 0 1-1.217-.507 1.846 1.846 0 0 1-.452-1.277 1.884 1.884 0 0 1 .467-1.32 1.62 1.62 0 0 1 1.259-.514 1.586 1.586 0 0 1 1.228.506 1.831 1.831 0 0 1 .443 1.271zm-.8.025a1.569 1.569 0 0 0-.207-.823.761.761 0 0 0-.692-.415.773.773 0 0 0-.707.415 1.589 1.589 0 0 0-.207.837 1.569 1.569 0 0 0 .207.823.778.778 0 0 0 .7.415.769.769 0 0 0 .692-.422 1.559 1.559 0 0 0 .214-.831z" class="prefix__cls-2" data-name="Path 54" transform="translate(-45.425 -7.102)"/>
            <path id="prefix__Path_55" d="M60.96 8.719l-1.085 3.468h-.706l-.449-1.506a11.269 11.269 0 0 1-.279-1.12h-.014a8.2 8.2 0 0 1-.279 1.12l-.477 1.506h-.714l-1.02-3.468h.792l.392 1.649q.142.585.235 1.113h.014q.086-.435.286-1.106l.492-1.655h.628l.472 1.62q.171.593.278 1.142h.021a10.909 10.909 0 0 1 .235-1.142l.418-1.62h.757z" class="prefix__cls-2" data-name="Path 55" transform="translate(-46.916 -7.128)"/>
            <path id="prefix__Path_56" d="M67.106 12.161h-.771v-1.987q0-.918-.7-.918a.7.7 0 0 0-.557.252.9.9 0 0 0-.214.594v2.058h-.771V9.684q0-.457-.028-.992h.678l.036.542h.021a1.114 1.114 0 0 1 .4-.419 1.3 1.3 0 0 1 .7-.195 1.107 1.107 0 0 1 .807.314 1.526 1.526 0 0 1 .4 1.149z" class="prefix__cls-2" data-name="Path 56" transform="translate(-49.066 -7.102)"/>
            <path id="prefix__Path_57" d="M70.811 11.615h-.77V6.556h.77z" class="prefix__cls-2" data-name="Path 57" transform="translate(-50.645 -6.556)"/>
            <path id="prefix__Path_58" d="M76.038 10.4a1.9 1.9 0 0 1-.457 1.313 1.632 1.632 0 0 1-1.27.528 1.548 1.548 0 0 1-1.217-.507 1.846 1.846 0 0 1-.452-1.277 1.884 1.884 0 0 1 .467-1.32 1.62 1.62 0 0 1 1.259-.514 1.588 1.588 0 0 1 1.229.506 1.831 1.831 0 0 1 .441 1.271zm-.8.025a1.569 1.569 0 0 0-.208-.825.76.76 0 0 0-.691-.415.772.772 0 0 0-.707.415 1.589 1.589 0 0 0-.207.837 1.569 1.569 0 0 0 .207.823.778.778 0 0 0 .7.415.768.768 0 0 0 .691-.422 1.552 1.552 0 0 0 .214-.829z" class="prefix__cls-2" data-name="Path 58" transform="translate(-51.332 -7.102)"/>
            <path id="prefix__Path_59" d="M81.307 12.162h-.692l-.057-.4h-.021a1.187 1.187 0 0 1-1.013.478 1.045 1.045 0 0 1-.792-.314.985.985 0 0 1-.271-.706 1.077 1.077 0 0 1 .532-.97 2.76 2.76 0 0 1 1.5-.328v-.065q0-.685-.72-.685a1.613 1.613 0 0 0-.9.257l-.157-.506a2.224 2.224 0 0 1 1.19-.3q1.36 0 1.361 1.435v1.277a5.416 5.416 0 0 0 .04.827zm-.8-1.192v-.535q-1.276-.022-1.276.7a.522.522 0 0 0 .148.407.539.539 0 0 0 .377.135.779.779 0 0 0 .472-.16.658.658 0 0 0 .28-.546z" class="prefix__cls-2" data-name="Path 59" transform="translate(-52.87 -7.102)"/>
            <path id="prefix__Path_60" d="M87.1 11.615h-.684l-.036-.557h-.021a1.153 1.153 0 0 1-1.114.636A1.305 1.305 0 0 1 84.2 11.2a1.917 1.917 0 0 1-.413-1.277 2.011 2.011 0 0 1 .449-1.363 1.382 1.382 0 0 1 1.07-.486 1.039 1.039 0 0 1 .977.471h.017V6.556h.772v4.125q-.004.506.028.934zm-.8-1.463v-.578a1.135 1.135 0 0 0-.021-.243.878.878 0 0 0-.279-.466.758.758 0 0 0-.516-.189.791.791 0 0 0-.678.343 1.469 1.469 0 0 0-.247.878 1.37 1.37 0 0 0 .237.835.794.794 0 0 0 .674.342.743.743 0 0 0 .609-.285.95.95 0 0 0 .221-.636z" class="prefix__cls-2" data-name="Path 60" transform="translate(-54.278 -6.556)"/>
            <path id="prefix__Path_61" d="M96.028 10.4a1.9 1.9 0 0 1-.457 1.313 1.629 1.629 0 0 1-1.271.528 1.552 1.552 0 0 1-1.217-.507 1.846 1.846 0 0 1-.452-1.277 1.884 1.884 0 0 1 .467-1.32 1.621 1.621 0 0 1 1.26-.514 1.584 1.584 0 0 1 1.227.506 1.831 1.831 0 0 1 .443 1.271zm-.8.025a1.568 1.568 0 0 0-.207-.823.762.762 0 0 0-.692-.415.775.775 0 0 0-.707.415 1.589 1.589 0 0 0-.207.837 1.569 1.569 0 0 0 .207.823.788.788 0 0 0 1.392-.007 1.565 1.565 0 0 0 .215-.831z" class="prefix__cls-2" data-name="Path 61" transform="translate(-56.616 -7.102)"/>
            <path id="prefix__Path_62" d="M101.791 12.161h-.77v-1.987q0-.918-.7-.918a.693.693 0 0 0-.556.252.892.892 0 0 0-.214.594v2.058h-.772V9.684q0-.457-.027-.992h.677l.036.542h.021a1.125 1.125 0 0 1 .4-.419 1.306 1.306 0 0 1 .7-.195 1.106 1.106 0 0 1 .806.314 1.523 1.523 0 0 1 .4 1.149z" class="prefix__cls-2" data-name="Path 62" transform="translate(-58.234 -7.102)"/>
            <path id="prefix__Path_63" d="M109.177 8.986h-.849v1.685c0 .428.151.642.449.642a1.358 1.358 0 0 0 .344-.036l.02.585a1.732 1.732 0 0 1-.6.086.922.922 0 0 1-.713-.278 1.36 1.36 0 0 1-.257-.935V8.986h-.507v-.577h.507v-.636l.756-.228v.863h.849v.578z" class="prefix__cls-2" data-name="Path 63" transform="translate(-60.432 -6.817)"/>
            <path id="prefix__Path_64" d="M114.4 11.615h-.772V9.644q0-.932-.7-.933a.736.736 0 0 0-.736.541.969.969 0 0 0-.036.277v2.086h-.77V6.556h.77v2.09h.015a1.165 1.165 0 0 1 1.042-.57 1.074 1.074 0 0 1 .793.314 1.579 1.579 0 0 1 .392 1.163v2.062z" class="prefix__cls-2" data-name="Path 64" transform="translate(-61.575 -6.556)"/>
            <path id="prefix__Path_65" d="M120.1 10.261a1.862 1.862 0 0 1-.029.349h-2.312a1.011 1.011 0 0 0 .335.785 1.148 1.148 0 0 0 .757.243 2.554 2.554 0 0 0 .935-.164l.121.536a2.9 2.9 0 0 1-1.164.214 1.681 1.681 0 0 1-1.266-.475 1.748 1.748 0 0 1-.46-1.273 1.985 1.985 0 0 1 .428-1.306 1.474 1.474 0 0 1 1.212-.556 1.29 1.29 0 0 1 1.134.556 1.851 1.851 0 0 1 .309 1.091zm-.736-.2a1.038 1.038 0 0 0-.149-.592.673.673 0 0 0-.614-.321.732.732 0 0 0-.614.314 1.167 1.167 0 0 0-.229.6h1.605z" class="prefix__cls-2" data-name="Path 65" transform="translate(-63.062 -7.1)"/>
        </g>
    </g>
</svg>
