<svg xmlns="http://www.w3.org/2000/svg" xmlns:xlink="http://www.w3.org/1999/xlink" width="142.729" height="42.117" viewBox="0 0 142.729 42.117"><defs><style>.a,.b,.d,.e,.f,.g,.h,.i,.j,.k{fill-rule:evenodd;}.b{fill:#a6a6a6;}.c,.d,.k{fill:#fff;}.e{fill:url(#a);}.f{fill:url(#b);}.g{fill:url(#c);}.h{fill:url(#d);}.i{opacity:0.2;}.j{opacity:0.12;}.k{opacity:0.25;}</style><linearGradient id="a" x1="2.472" y1="1.035" x2="2.361" y2="1.005" gradientUnits="objectBoundingBox"><stop offset="0" stop-color="#00a0ff"/><stop offset="0.007" stop-color="#00a1ff"/><stop offset="0.26" stop-color="#00beff"/><stop offset="0.512" stop-color="#00d2ff"/><stop offset="0.76" stop-color="#00dfff"/><stop offset="1" stop-color="#00e3ff"/></linearGradient><linearGradient id="b" x1="1.95" y1="1.879" x2="1.69" y2="1.879" gradientUnits="objectBoundingBox"><stop offset="0" stop-color="#ffe000"/><stop offset="0.409" stop-color="#ffbd00"/><stop offset="0.775" stop-color="orange"/><stop offset="1" stop-color="#ff9c00"/></linearGradient><linearGradient id="c" x1="1.926" y1="0.946" x2="1.835" y2="0.793" gradientUnits="objectBoundingBox"><stop offset="0" stop-color="#ff3a44"/><stop offset="1" stop-color="#c31162"/></linearGradient><linearGradient id="d" x1="1.856" y1="2.093" x2="1.897" y2="2.025" gradientUnits="objectBoundingBox"><stop offset="0" stop-color="#32a071"/><stop offset="0.068" stop-color="#2da771"/><stop offset="0.476" stop-color="#15cf74"/><stop offset="0.801" stop-color="#06e775"/><stop offset="1" stop-color="#00f076"/></linearGradient></defs><path class="a" d="M137.441,42.117H5.288A5.291,5.291,0,0,1,0,36.852V5.265A5.284,5.284,0,0,1,5.288,0H137.441a5.286,5.286,0,0,1,5.288,5.265V36.852A5.293,5.293,0,0,1,137.441,42.117Z"/><path class="b" d="M137.441.843a4.445,4.445,0,0,1,4.445,4.422V36.852a4.437,4.437,0,0,1-4.445,4.422H5.288A4.446,4.446,0,0,1,.843,36.852V5.265A4.437,4.437,0,0,1,5.288.843Zm0-.843H5.288A5.291,5.291,0,0,0,0,5.265V36.852a5.284,5.284,0,0,0,5.288,5.265H137.441a5.286,5.286,0,0,0,5.288-5.265V5.265A5.293,5.293,0,0,0,137.441,0Z"/><path class="c" d="M1686.053,278.108a3.2,3.2,0,0,1-2.392-.99,3.371,3.371,0,0,1-.966-2.416,3.3,3.3,0,0,1,.966-2.413,3.2,3.2,0,0,1,2.39-.99,3.238,3.238,0,0,1,2.392.99,3.5,3.5,0,0,1,0,4.826A3.178,3.178,0,0,1,1686.053,278.108Zm-28.36,0a3.323,3.323,0,0,1-2.4-.977,3.4,3.4,0,0,1,2.4-5.829,3.348,3.348,0,0,1,1.342.278,2.711,2.711,0,0,1,1.021.73l.063.076-.712.7-.073-.087a2.023,2.023,0,0,0-1.652-.712,2.281,2.281,0,0,0-1.646.672,2.551,2.551,0,0,0,0,3.5,2.407,2.407,0,0,0,3.337,0,1.821,1.821,0,0,0,.483-1.095h-2.282v-.982h3.261l.013.089a3.594,3.594,0,0,1,.047.494,2.956,2.956,0,0,1-.814,2.179A3.177,3.177,0,0,1,1657.693,278.108Zm37.708-.139h-1.006l-3.08-4.929.026.888v4.038h-1.006v-6.525h1.148l.031.05,2.9,4.642-.026-.885v-3.807h1.016Zm-16.9,0h-1.019v-5.546h-1.767v-.982h4.55v.982h-1.767v5.546Zm-3.616,0h-1.016v-6.528h1.016Zm-5.711,0h-1.016v-5.546h-1.767v-.982h4.551v.982h-1.767Zm-3.427-.01h-3.9v-6.517h3.9v.982h-2.878v1.791h2.6v.971h-2.6v1.791h2.878Zm18.664-1.515a2.248,2.248,0,0,0,1.646.683,2.192,2.192,0,0,0,1.646-.683,2.588,2.588,0,0,0,0-3.476,2.253,2.253,0,0,0-1.646-.683,2.181,2.181,0,0,0-1.644.683,2.591,2.591,0,0,0-.005,3.476Z" transform="translate(-1610.863 -264.176)"/><path class="d" d="M1675.2,687.973a4.479,4.479,0,1,0,4.493,4.479A4.409,4.409,0,0,0,1675.2,687.973Zm0,7.184a2.722,2.722,0,1,1,2.526-2.715A2.592,2.592,0,0,1,1675.2,695.157Zm-9.8-7.184a4.479,4.479,0,1,0,4.493,4.479A4.409,4.409,0,0,0,1665.4,687.973Zm0,7.184a2.722,2.722,0,1,1,2.526-2.715A2.592,2.592,0,0,1,1665.4,695.157Zm-11.663-5.816v1.9h4.551a4,4,0,0,1-1.03,2.387,4.642,4.642,0,0,1-3.51,1.392,5.055,5.055,0,0,1,0-10.109,4.857,4.857,0,0,1,3.426,1.358l1.344-1.344a6.612,6.612,0,0,0-4.76-1.919,6.951,6.951,0,1,0,0,13.9,6.363,6.363,0,0,0,4.855-1.954,6.291,6.291,0,0,0,1.649-4.445,5.85,5.85,0,0,0-.105-1.182h-6.422S1653.734,689.341,1653.734,689.341Zm47.707,1.476a4.162,4.162,0,0,0-3.836-2.854,4.256,4.256,0,0,0-4.222,4.479,4.378,4.378,0,0,0,4.446,4.479,4.446,4.446,0,0,0,3.731-1.988l-1.52-1.019a2.548,2.548,0,0,1-2.2,1.239,2.288,2.288,0,0,1-2.177-1.357l5.989-2.481S1701.441,690.817,1701.441,690.817Zm-6.107,1.5a2.459,2.459,0,0,1,2.34-2.61,1.727,1.727,0,0,1,1.662.948Zm-4.865,4.34h1.967v-13.16h-1.967Zm-3.23-7.685h-.071a3.1,3.1,0,0,0-2.363-1.006,4.479,4.479,0,0,0,0,8.951,3.1,3.1,0,0,0,2.363-1.019h.071v.643c0,1.709-.914,2.631-2.387,2.631a2.483,2.483,0,0,1-2.258-1.591l-1.709.714a4.276,4.276,0,0,0,3.965,2.644c2.305,0,4.259-1.357,4.259-4.669V688.23h-1.859v.738Zm-2.258,6.189a2.724,2.724,0,0,1,0-5.427,2.518,2.518,0,0,1,2.387,2.725A2.487,2.487,0,0,1,1684.98,695.157Zm25.669-11.663h-4.7v13.16h1.967V691.67h2.739a4.094,4.094,0,1,0,0-8.177Zm.058,6.339h-2.8v-4.516h2.8a2.259,2.259,0,1,1,0,4.516Zm12.144-1.883a3.7,3.7,0,0,0-3.51,2.011l1.743.725a1.87,1.87,0,0,1,1.791-.971,1.9,1.9,0,0,1,2.072,1.7v.139a4.405,4.405,0,0,0-2.048-.5c-1.883,0-3.792,1.029-3.792,2.959a3.042,3.042,0,0,0,3.264,2.9,2.769,2.769,0,0,0,2.5-1.287h.071v1.019h1.9V691.6C1726.84,689.249,1725.1,687.95,1722.851,687.95Zm-.247,7.208c-.643,0-1.544-.315-1.544-1.124,0-1.019,1.124-1.4,2.083-1.4a3.414,3.414,0,0,1,1.791.444A2.367,2.367,0,0,1,1722.6,695.157Zm11.151-6.927-2.258,5.708h-.071l-2.339-5.708h-2.117l3.511,7.98-2,4.435h2.048l5.4-12.414Zm-17.7,8.423h1.967v-13.16h-1.967Z" transform="translate(-1603.462 -665.066)"/><path class="e" d="M400.581,299.471a2.133,2.133,0,0,0-.481,1.486v23.282a2.03,2.03,0,0,0,.491,1.473l.081.071,13.044-13.045v-.291L400.662,299.4Z" transform="translate(-389.595 -291.539)"/><path class="f" d="M922.651,639.506l-4.351-4.351v-.3l4.351-4.351.094.058,5.146,2.925c1.473.83,1.473,2.2,0,3.041l-5.146,2.925Z" transform="translate(-894.188 -613.945)"/><path class="g" d="M435.971,806.445,431.526,802,418.4,815.126a1.723,1.723,0,0,0,2.187.071l15.384-8.752" transform="translate(-407.414 -780.942)"/><path class="h" d="M435.971,295.571l-15.384-8.738a1.706,1.706,0,0,0-2.187.071l13.126,13.113Z" transform="translate(-407.414 -278.958)"/><path class="i" d="M436.266,967.7l-15.279,8.68a1.734,1.734,0,0,1-2.106.011l-.081.081.081.071a1.738,1.738,0,0,0,2.106-.011l15.384-8.738Z" transform="translate(-407.803 -942.291)"/><path class="j" d="M1088.754,803.368l-5.254,2.983.095.094,5.146-2.925a1.844,1.844,0,0,0,1.1-1.52A1.894,1.894,0,0,1,1088.754,803.368Z" transform="translate(-1055.05 -780.942)"/><path class="k" d="M402.768,286.815l20.53,11.663a1.935,1.935,0,0,1,1.1,1.368,1.844,1.844,0,0,0-1.1-1.52l-20.53-11.663c-1.473-.843-2.668-.139-2.668,1.544v.152C400.1,286.673,401.295,285.983,402.768,286.815Z" transform="translate(-389.595 -278.788)"/></svg>