<svg xmlns="http://www.w3.org/2000/svg" xmlns:xlink="http://www.w3.org/1999/xlink" width="11.653" height="18.473" viewBox="0 0 11.653 18.473">
  <defs>
    <clipPath id="phone-icon">
      <rect width="11.653" height="18.473" fill="current"/>
    </clipPath>
  </defs>
  <g ransform="translate(0 0)">
    <g transform="translate(0 0)" clip-path="url(#phone-icon)">
      <path d="M9.467.012H8.006A.988.988,0,0,0,7.894,0H3.759a.977.977,0,0,0-.112.012H2.187A2.189,2.189,0,0,0,0,2.2V16.286a2.189,2.189,0,0,0,2.187,2.186h7.28a2.189,2.189,0,0,0,2.186-2.186V2.2A2.189,2.189,0,0,0,9.467.012m1.147,16.275a1.148,1.148,0,0,1-1.147,1.147H2.187A1.149,1.149,0,0,1,1.04,16.286V2.2A1.149,1.149,0,0,1,2.187,1.051h.568a1.007,1.007,0,0,0,1,.968H7.894a1.007,1.007,0,0,0,1-.968h.568A1.148,1.148,0,0,1,10.613,2.2Z" transform="translate(0 0)" fill="current"/>
    </g>
  </g>
</svg>
