<svg xmlns="http://www.w3.org/2000/svg" width="18.024" height="18.025" viewBox="0 0 18.024 18.025">
  <g transform="translate(-268.501 -2048.488)">
    <path d="M33.947,102.284a9.013,9.013,0,1,1,9.013-9.012,9.022,9.022,0,0,1-9.013,9.012m0-16.913a7.9,7.9,0,1,0,7.9,7.9,7.909,7.909,0,0,0-7.9-7.9" transform="translate(243.564 1964.229)" fill="current"/>
    <path d="M30.38,89.847a1.407,1.407,0,1,1-1.407-1.407,1.407,1.407,0,0,1,1.407,1.407" transform="translate(244.834 1966.247)" fill="current"/>
    <path d="M35.567,89.847A1.407,1.407,0,1,1,34.16,88.44a1.407,1.407,0,0,1,1.407,1.407" transform="translate(247.336 1966.247)" fill="current"/>
    <path d="M32.5,95.393c-2.513,0-4.556-1.772-4.556-3.951h1.112c0,1.566,1.545,2.839,3.444,2.839s3.447-1.274,3.447-2.839h1.112c0,2.18-2.046,3.951-4.559,3.951" transform="translate(245.014 1967.696)" fill="current"/>
  </g>
</svg>
