<svg xmlns="http://www.w3.org/2000/svg" xmlns:xlink="http://www.w3.org/1999/xlink" width="18.093" height="18.473" viewBox="0 0 18.093 18.473">
  <defs>
    <clipPath id="copy-icon">
      <rect width="18.093" height="18.473" fill="current"/>
    </clipPath>
  </defs>
  <g transform="translate(0 0)">
    <g transform="translate(0 0)" clip-path="url(#copy-icon)">
      <path d="M9.354,22.52H2.738A2.74,2.74,0,0,1,0,19.783V13.166a2.741,2.741,0,0,1,2.738-2.737H9.354a2.741,2.741,0,0,1,2.738,2.737v6.617A2.741,2.741,0,0,1,9.354,22.52M2.738,11.469a1.7,1.7,0,0,0-1.7,1.7v6.617a1.7,1.7,0,0,0,1.7,1.7H9.354a1.7,1.7,0,0,0,1.7-1.7V13.166a1.7,1.7,0,0,0-1.7-1.7Z" transform="translate(0 -4.047)" fill="current"/>
      <path d="M19.161,12.091H17.7a.52.52,0,1,1,0-1.04h1.463a1.7,1.7,0,0,0,1.7-1.7V2.738a1.7,1.7,0,0,0-1.7-1.7H12.545a1.7,1.7,0,0,0-1.7,1.7V4.757a.52.52,0,0,1-1.041,0V2.738A2.741,2.741,0,0,1,12.545,0h6.616A2.741,2.741,0,0,1,21.9,2.738V9.354a2.74,2.74,0,0,1-2.738,2.737" transform="translate(-3.806 0)" fill="current"/>
    </g>
  </g>
</svg>
