<svg xmlns="http://www.w3.org/2000/svg" xmlns:xlink="http://www.w3.org/1999/xlink" width="16.926" height="10.264" viewBox="0 0 16.926 10.264">
  <defs>
    <clipPath id="email-icon">
      <rect width="16.926" height="10.264" transform="translate(0 0)" fill="current"/>
    </clipPath>
  </defs>
  <g transform="translate(0 0)">
    <g clip-path="url(#email-icon)">
      <path d="M14.971,0H1.955A1.957,1.957,0,0,0,0,1.955V8.309a1.958,1.958,0,0,0,1.955,1.956H14.971a1.958,1.958,0,0,0,1.955-1.956V1.955A1.957,1.957,0,0,0,14.971,0m0,1a.875.875,0,0,1,.169.035l-6.1,3.64a1.121,1.121,0,0,1-1.151,0l-6.1-3.641A.933.933,0,0,1,1.955,1Zm.955,7.309a.957.957,0,0,1-.955.956H1.955A.957.957,0,0,1,1,8.309V1.955a.926.926,0,0,1,.041-.2L7.375,5.534a2.123,2.123,0,0,0,2.176,0l6.334-3.78a.908.908,0,0,1,.041.2Z" fill="current"/>
    </g>
  </g>
</svg>
